<?xml version="1.0" encoding="UTF-8" standalone="no"?>
<!DOCTYPE svg PUBLIC "-//W3C//DTD SVG 1.1//EN"
 "http://www.w3.org/Graphics/SVG/1.1/DTD/svg11.dtd">
<!-- Generated by graphviz version 2.43.0 (0)
 -->
<!-- Title: %3 Pages: 1 -->
<svg width="625pt" height="566pt"
 viewBox="0.00 0.00 625.39 566.00" xmlns="http://www.w3.org/2000/svg" xmlns:xlink="http://www.w3.org/1999/xlink">
<g id="graph0" class="graph" transform="scale(1 1) rotate(0) translate(4 562)">
<title>%3</title>
<polygon fill="white" stroke="transparent" points="-4,4 -4,-562 621.39,-562 621.39,4 -4,4"/>
<!-- Mount -->
<g id="node1" class="node">
<title>Mount</title>
<ellipse fill="none" stroke="black" cx="320.39" cy="-540" rx="40.89" ry="18"/>
<text text-anchor="middle" x="320.39" y="-536.3" font-family="Times,serif" font-size="14.00">Mount</text>
</g>
<!-- Open Guard -->
<g id="node6" class="node">
<title>Open Guard</title>
<ellipse fill="none" stroke="black" cx="320.39" cy="-453" rx="66.89" ry="18"/>
<text text-anchor="middle" x="320.39" y="-449.3" font-family="Times,serif" font-size="14.00">Open Guard</text>
</g>
<!-- Mount&#45;&gt;Open Guard -->
<g id="edge1" class="edge">
<title>Mount&#45;&gt;Open Guard</title>
<path fill="none" stroke="black" d="M320.39,-521.8C320.39,-510.16 320.39,-494.55 320.39,-481.24"/>
<polygon fill="black" stroke="black" points="323.89,-481.18 320.39,-471.18 316.89,-481.18 323.89,-481.18"/>
<text text-anchor="middle" x="422.89" y="-492.8" font-family="Times,serif" font-size="14.00">Trap and Roll (Spread Hand)</text>
</g>
<!-- Side Mount -->
<g id="node2" class="node">
<title>Side Mount</title>
<ellipse fill="none" stroke="black" cx="456.39" cy="-279" rx="64.19" ry="18"/>
<text text-anchor="middle" x="456.39" y="-275.3" font-family="Times,serif" font-size="14.00">Side Mount</text>
</g>
<!-- High&#45;Low Guard -->
<g id="node5" class="node">
<title>High&#45;Low Guard</title>
<ellipse fill="none" stroke="black" cx="456.39" cy="-192" rx="87.18" ry="18"/>
<text text-anchor="middle" x="456.39" y="-188.3" font-family="Times,serif" font-size="14.00">High&#45;Low Guard</text>
</g>
<!-- Side Mount&#45;&gt;High&#45;Low Guard -->
<g id="edge2" class="edge">
<title>Side Mount&#45;&gt;High&#45;Low Guard</title>
<path fill="none" stroke="black" d="M456.39,-260.8C456.39,-249.16 456.39,-233.55 456.39,-220.24"/>
<polygon fill="black" stroke="black" points="459.89,-220.18 456.39,-210.18 452.89,-220.18 459.89,-220.18"/>
<text text-anchor="middle" x="465.89" y="-231.8" font-family="Times,serif" font-size="14.00">....</text>
</g>
<!-- Sitting Headlock -->
<g id="node3" class="node">
<title>Sitting Headlock</title>
<ellipse fill="none" stroke="black" cx="88.39" cy="-192" rx="88.28" ry="18"/>
<text text-anchor="middle" x="88.39" y="-188.3" font-family="Times,serif" font-size="14.00">Sitting Headlock</text>
</g>
<!-- Modified Mount -->
<g id="node4" class="node">
<title>Modified Mount</title>
<ellipse fill="none" stroke="black" cx="139.39" cy="-105" rx="84.49" ry="18"/>
<text text-anchor="middle" x="139.39" y="-101.3" font-family="Times,serif" font-size="14.00">Modified Mount</text>
</g>
<!-- Sitting Headlock&#45;&gt;Modified Mount -->
<g id="edge3" class="edge">
<title>Sitting Headlock&#45;&gt;Modified Mount</title>
<path fill="none" stroke="black" d="M77.72,-173.87C72.89,-163.77 69.45,-151.03 75.39,-141 78.74,-135.35 83.36,-130.56 88.59,-126.5"/>
<polygon fill="black" stroke="black" points="90.87,-129.19 97.23,-120.72 86.98,-123.37 90.87,-129.19"/>
<text text-anchor="middle" x="190.89" y="-144.8" font-family="Times,serif" font-size="14.00">Headlock Escape 1 (Super Lock)</text>
</g>
<!-- Back Mount -->
<g id="node7" class="node">
<title>Back Mount</title>
<ellipse fill="none" stroke="black" cx="242.39" cy="-18" rx="66.09" ry="18"/>
<text text-anchor="middle" x="242.39" y="-14.3" font-family="Times,serif" font-size="14.00">Back Mount</text>
</g>
<!-- Modified Mount&#45;&gt;Back Mount -->
<g id="edge4" class="edge">
<title>Modified Mount&#45;&gt;Back Mount</title>
<path fill="none" stroke="black" d="M159.74,-87.21C175.36,-74.32 197.1,-56.38 214.37,-42.13"/>
<polygon fill="black" stroke="black" points="216.95,-44.53 222.44,-35.47 212.49,-39.13 216.95,-44.53"/>
<text text-anchor="middle" x="247.39" y="-57.8" font-family="Times,serif" font-size="14.00">Take the Back</text>
</g>
<!-- Triangle Setup -->
<g id="node9" class="node">
<title>Triangle Setup</title>
<ellipse fill="none" stroke="black" cx="456.39" cy="-105" rx="79.09" ry="18"/>
<text text-anchor="middle" x="456.39" y="-101.3" font-family="Times,serif" font-size="14.00">Triangle Setup</text>
</g>
<!-- High&#45;Low Guard&#45;&gt;Triangle Setup -->
<g id="edge5" class="edge">
<title>High&#45;Low Guard&#45;&gt;Triangle Setup</title>
<path fill="none" stroke="black" d="M456.39,-173.8C456.39,-162.16 456.39,-146.55 456.39,-133.24"/>
<polygon fill="black" stroke="black" points="459.89,-133.18 456.39,-123.18 452.89,-133.18 459.89,-133.18"/>
<text text-anchor="middle" x="458.89" y="-144.8" font-family="Times,serif" font-size="14.00">.</text>
</g>
<!-- Guard -->
<g id="node10" class="node">
<title>Guard</title>
<ellipse fill="none" stroke="black" cx="208.39" cy="-366" rx="39.79" ry="18"/>
<text text-anchor="middle" x="208.39" y="-362.3" font-family="Times,serif" font-size="14.00">Guard</text>
</g>
<!-- Open Guard&#45;&gt;Guard -->
<g id="edge6" class="edge">
<title>Open Guard&#45;&gt;Guard</title>
<path fill="none" stroke="black" d="M263.21,-443.52C246.63,-438.39 229.92,-430.17 218.39,-417 212.9,-410.72 210.1,-402.29 208.75,-394.15"/>
<polygon fill="black" stroke="black" points="212.22,-393.75 207.72,-384.16 205.26,-394.47 212.22,-393.75"/>
<text text-anchor="middle" x="262.39" y="-405.8" font-family="Times,serif" font-size="14.00">Close Guard</text>
</g>
<!-- Modified Side Mount -->
<g id="node12" class="node">
<title>Modified Side Mount</title>
<ellipse fill="none" stroke="black" cx="456.39" cy="-366" rx="107.78" ry="18"/>
<text text-anchor="middle" x="456.39" y="-362.3" font-family="Times,serif" font-size="14.00">Modified Side Mount</text>
</g>
<!-- Open Guard&#45;&gt;Modified Side Mount -->
<g id="edge7" class="edge">
<title>Open Guard&#45;&gt;Modified Side Mount</title>
<path fill="none" stroke="black" d="M345.65,-436.21C366.91,-422.93 397.52,-403.79 421.18,-389.01"/>
<polygon fill="black" stroke="black" points="423.25,-391.84 429.87,-383.57 419.54,-385.91 423.25,-391.84"/>
<text text-anchor="middle" x="507.39" y="-405.8" font-family="Times,serif" font-size="14.00">Double Underhook Guard Pass</text>
</g>
<!-- Back Mount&#45;&gt;Open Guard -->
<g id="edge8" class="edge">
<title>Back Mount&#45;&gt;Open Guard</title>
<path fill="none" stroke="black" d="M275.94,-33.72C285.15,-39.04 294.49,-45.8 301.39,-54 316.69,-72.19 320.39,-80.23 320.39,-104 320.39,-367 320.39,-367 320.39,-367 320.39,-386.25 320.39,-407.95 320.39,-424.6"/>
<polygon fill="black" stroke="black" points="316.89,-424.74 320.39,-434.74 323.89,-424.74 316.89,-424.74"/>
<text text-anchor="middle" x="371.89" y="-231.8" font-family="Times,serif" font-size="14.00">Frame Escape</text>
</g>
<!-- Opponent on Ground -->
<g id="node8" class="node">
<title>Opponent on Ground</title>
<ellipse fill="none" stroke="black" cx="170.39" cy="-279" rx="107.78" ry="18"/>
<text text-anchor="middle" x="170.39" y="-275.3" font-family="Times,serif" font-size="14.00">Opponent on Ground</text>
</g>
<!-- Opponent on Ground&#45;&gt;Sitting Headlock -->
<g id="edge9" class="edge">
<title>Opponent on Ground&#45;&gt;Sitting Headlock</title>
<path fill="none" stroke="black" d="M153.8,-260.8C141.72,-248.27 125.19,-231.14 111.77,-217.23"/>
<polygon fill="black" stroke="black" points="114.14,-214.65 104.68,-209.89 109.11,-219.51 114.14,-214.65"/>
<text text-anchor="middle" x="139.39" y="-231.8" font-family="Times,serif" font-size="14.00">..</text>
</g>
<!-- Submitted -->
<g id="node11" class="node">
<title>Submitted</title>
<ellipse fill="none" stroke="black" cx="456.39" cy="-18" rx="59.59" ry="18"/>
<text text-anchor="middle" x="456.39" y="-14.3" font-family="Times,serif" font-size="14.00">Submitted</text>
</g>
<!-- Triangle Setup&#45;&gt;Submitted -->
<g id="edge10" class="edge">
<title>Triangle Setup&#45;&gt;Submitted</title>
<path fill="none" stroke="red" d="M456.39,-86.8C456.39,-75.16 456.39,-59.55 456.39,-46.24"/>
<polygon fill="red" stroke="red" points="459.89,-46.18 456.39,-36.18 452.89,-46.18 459.89,-46.18"/>
<text text-anchor="middle" x="510.89" y="-57.8" font-family="Times,serif" font-size="14.00">Triangle Choke</text>
</g>
<!-- Guard&#45;&gt;Opponent on Ground -->
<g id="edge11" class="edge">
<title>Guard&#45;&gt;Opponent on Ground</title>
<path fill="none" stroke="black" d="M200.88,-348.21C195.56,-336.29 188.3,-320.06 182.21,-306.42"/>
<polygon fill="black" stroke="black" points="185.29,-304.75 178.01,-297.05 178.9,-307.61 185.29,-304.75"/>
<text text-anchor="middle" x="242.39" y="-318.8" font-family="Times,serif" font-size="14.00">Guard Get&#45;Up</text>
</g>
<!-- Modified Side Mount&#45;&gt;Side Mount -->
<g id="edge12" class="edge">
<title>Modified Side Mount&#45;&gt;Side Mount</title>
<path fill="none" stroke="black" d="M456.39,-347.8C456.39,-336.16 456.39,-320.55 456.39,-307.24"/>
<polygon fill="black" stroke="black" points="459.89,-307.18 456.39,-297.18 452.89,-307.18 459.89,-307.18"/>
<text text-anchor="middle" x="458.89" y="-318.8" font-family="Times,serif" font-size="14.00">.</text>
</g>
</g>
</svg>
